{"title":"Sharasojyu AKA Shara (Naomi Kawase, 2003)","uid":5346136,"size":1468535420,"categoryP":"video","categoryS":"movies","magnet":"?xt=urn:btih:02695a5797b56b302cfa9ce0c6dcc84233c6171c&amp;dn=Sharasojyu+AKA+Shara+%28Naomi+Kawase%2C+2003%29&amp;tr=udp%3A%2F%2Ftracker.openbittorrent.com%3A80&amp;tr=udp%3A%2F%2Fopen.demonii.com%3A1337&amp;tr=udp%3A%2F%2Ftracker.coppersurfer.tk%3A6969&amp;tr=udp%3A%2F%2Fexodus.desync.com%3A6969","seeders":8,"leechers":1,"uploader":"pulverfan","files":2,"time":1265643878,"description":"The Aso, a family of four, live in the old town of Nara. On the day of the Jizo Festival in the dizzying heat of midsummer, Kei, one of the Asos' twin boys suddenly disappears, as if he had been spirited away... For the family left behind, the flow of time stopped on that day. Five years later. Seventeen-year old Shun, the remaining twin, is a high school student, a member of the art club. He is working on a life-sized drawing of his brother, who he has been unable to forget. He and his childhood female friend, Yu, share a tentative attraction, but they are awkward around each other. Shun and Yu and their families all carry emotions that have no release. Each of them is searching for a way out. Then, one day, Yu finds out the secret of her birth. Shun learns what became of his brother. With their losses concealed deep in their hearts, Shun and Yu are about to make a move forward with their lives.\n\n----------------------------------------------------------\n\nGeneral\nComplete name                    : Sharasojyu (2003)Naomi Kawase-Sharasojyu (2003).avi\nFormat                           : AVI\nFormat/Info                      : Audio Video Interleave\nFile size                        : 1.37 GiB\nDuration                         : 1h 39mn\nOverall bit rate                 : 1 972 Kbps\nWriting application              : VirtualDubMod 1.5.4.1 (build 2178/release)\nWriting library                  : VirtualDubMod build 2178/release\n\nVideo\nID                               : 0\nFormat                           : MPEG-4 Visual\nFormat profile                   : Advanced Simple@L5\nFormat settings, BVOP            : Yes\nFormat settings, QPel            : No\nFormat settings, GMC             : No warppoints\nFormat settings, Matrix          : Custom\nCodec ID                         : XVID\nCodec ID/Hint                    : XviD\nDuration                         : 1h 39mn\nBit rate                         : 1 581 Kbps\nWidth                            : 640 pixels\nHeight                           : 336 pixels\nDisplay aspect ratio             : 1.905\nFrame rate                       : 23.976 fps\nResolution                       : 8 bits\nColorimetry                      : 4:2:0\nScan type                        : Progressive\nBits/(Pixel*Frame)               : 0.307\nStream size                      : 1.10 GiB (80%)\nWriting library                  : XviD 1.2.0.dev47 (UTC 2006-11-01)\n\nAudio\nID                               : 1\nFormat                           : AC-3\nFormat/Info                      : Audio Coding 3\nFormat profile                   : Dolby Digital\nCodec ID                         : 2000\nDuration                         : 1h 39mn\nBit rate mode                    : Constant\nBit rate                         : 384 Kbps\nChannel(s)                       : 2 channels\nChannel positions                : L R\nSampling rate                    : 48.0 KHz\nStream size                      : 273 MiB (19%)\nAlignment                        : Split accross interleaves\nInterleave, duration             : 96 ms (2.30 video frames)\nInterleave, preload duration     : 96 ms\nLanguage                         : Japanese","torrent":{"xt":"urn:btih:02695a5797b56b302cfa9ce0c6dcc84233c6171c","amp;dn":"Sharasojyu+AKA+Shara+%28Naomi+Kawase%2C+2003%29","amp;tr":["udp%3A%2F%2Ftracker.openbittorrent.com%3A80","udp%3A%2F%2Fopen.demonii.com%3A1337","udp%3A%2F%2Ftracker.coppersurfer.tk%3A6969","udp%3A%2F%2Fexodus.desync.com%3A6969"],"infoHash":"02695a5797b56b302cfa9ce0c6dcc84233c6171c","infoHashBuffer":{"type":"Buffer","data":[2,105,90,87,151,181,107,48,44,250,156,224,198,220,200,66,51,198,23,28]},"announce":[],"urlList":[]}}